<?xml version="1.0" encoding="utf-8"?>
<!-- Generator: Adobe Illustrator 19.1.0, SVG Export Plug-In . SVG Version: 6.00 Build 0)  -->
<svg version="1.1" xmlns="http://www.w3.org/2000/svg" xmlns:xlink="http://www.w3.org/1999/xlink" x="0px" y="0px"
	 viewBox="0 0 478.5 48" style="enable-background:new 0 0 478.5 48;" xml:space="preserve">
<style type="text/css">
	.st0{fill:#212121;}
</style>
<g id="Layer_2">
</g>
<g id="Layer_1">
	<g id="_x32_uNk5S.tif">
		<g>
			<path class="st0" d="M15.6,35.1c10,0,19.9,0,29.9,0c95.8,0,191.7,0,287.5,0c0.1,0,0.2,0,0.4,0c2.1,0,2.3,0.1,1.5,2.1
				c-0.7,1.8-1.5,2.6-3.6,2.6c-103.8,0-207.7,0-311.5,0c-1.9,0-2.9-0.8-3.6-2.3c-0.1-0.2-0.3-0.5-0.5-0.7
				C15.6,36.2,15.6,35.7,15.6,35.1z"/>
			<path class="st0" d="M356.2,9.2c0,4.6,0,9.3,0,13.9c0,1.5-0.6,2.6-1.7,3.5c-1.7,1.4-3.8,2.2-5.9,2.7c-2.8,0.7-5.8,1-8.7,1
				c-6.4,0-12.7,0-19.1,0c-3.4,0-6.8-0.3-10-1.4c-1.2-0.4-2.4-1-3.5-1.7c-1.2-0.8-1.8-1.9-1.8-3.5c0.1-1.7,0.1-3.4,0-5.2
				c-0.1-1.6,0.7-2.8,1.9-3.8c2.1-1.6,4.6-2.3,7.1-2.7c2.1-0.3,4.3-0.5,6.4-0.5c7.4,0,14.7,0,22.1,0c1.3,0,1.3,0,1.3,1.3
				c0,2.2,0,2.2-2.2,2.2c-7.2,0-14.3,0-21.5,0c-1.7,0-3.3,0.2-4.7,1c-1.2,0.6-1.9,1.5-1.8,3c0.1,1.4,0.1,2.8,0,4.2
				c0,1.1,0.5,1.8,1.4,2.4c1.7,1,3.6,1.1,5.4,1.1c6.4,0,12.8,0,19.2,0c2,0,4-0.1,5.8-1.1c1.1-0.6,1.7-1.3,1.7-2.6
				c-0.1-4.6-0.1-9.3-0.1-13.9C350.4,9.2,353.3,9.2,356.2,9.2z"/>
			<path class="st0" d="M452.3,25.3c0.5,0.1,0.9,0.3,1.4,0.4c3.1,0.6,6.2,1.1,9.3,1.7c0.4,0.1,1,0.3,1,0.6c0.1,0.7-0.1,1.4-0.2,2.1
				c0,0.1-0.5,0.2-0.7,0.2c-4.1,0.2-8-0.2-12-1c-5.6-1.1-11.1-2.1-16.7-3.1c-2.4-0.4-4.8-0.9-7.2-1.3c-0.6-0.1-0.8-0.3-0.8-0.9
				c0-2.7-0.2-2.3,2.2-2.3c6.9,0,13.8,0,20.8,0c1.6,0,3.2-0.3,4.7-0.5c0.7-0.1,1.4-0.5,1.9-0.9c1.5-1.1,1.4-2.9-0.2-3.8
				c-0.8-0.4-1.7-0.7-2.6-0.9c-0.9-0.2-1.7-0.2-2.6-0.2c-6.9,0-13.8,0-20.6,0c-1.7,0-3.3,0.3-4.8,1c-1.2,0.5-1.7,1.4-1.7,2.7
				c0.1,3.4,0,6.8,0,10.2c0,1.2,0,1.2-1.2,1.2c-2.1,0-4.2,0-6.2,0c-0.8,0-1.1-0.3-1.1-1.1c0-3.4,0-6.8,0-10.2c0-1.9,0.8-3.2,2.3-4.2
				c2.2-1.5,4.7-2.3,7.4-2.7c2.1-0.3,4.3-0.5,6.4-0.5c7.4,0,14.7-0.1,22.1,0.1c3.2,0.1,6.3,0.6,9.1,2.2c0.9,0.5,1.7,1.1,2.3,1.8
				c1.4,1.4,1.5,4.3-0.6,5.8c-2,1.5-4.3,2.2-6.7,2.7c-1.3,0.3-2.7,0.4-4,0.5c-0.3,0-0.5,0.1-0.8,0.2
				C452.4,25.1,452.3,25.2,452.3,25.3z"/>
			<path class="st0" d="M389.9,22.9c-5.4,0-10.7,0-16.1,0c-0.3,0-0.6,0-0.8,0c-0.7,0.1-1.1,0.5-0.7,1.2c0.4,0.6,0.9,1.2,1.5,1.6
				c1.8,1.1,3.9,1.2,5.9,1.2c8.8,0,17.6,0,26.4,0c1.6,0,1.6,0,1.6,1.6c0,2,0.2,1.9-1.9,1.9c-8.9,0-17.8,0-26.8,0
				c-3.3,0-6.6-0.3-9.7-1.4c-1.5-0.5-2.9-1.3-4.2-2.2c-1.2-0.8-1.7-1.9-1.6-3.4c0.1-1.6,0.1-3.2,0-4.8c-0.1-1.9,0.8-3.1,2.2-4.1
				c1.8-1.2,3.8-2,6-2.3c2.6-0.4,5.2-0.7,7.7-0.7c8.9-0.1,17.8,0,26.6,0c1.6,0,1.6,0,1.6,1.6c0,1.9,0.3,1.9-1.9,1.9
				c-8.9,0-17.8,0-26.8,0c-2,0-3.8,0.3-5.5,1.3c-0.8,0.5-1.5,1.2-1.4,2.3c0,0.6,0.2,1,0.9,1c0.3,0,0.6,0,1,0c10.6,0,21.3,0,31.9,0
				c1.5,0,1.5,0,1.5,1.5c0,2.1,0.3,1.9-1.9,1.9C400.3,22.9,395.1,22.9,389.9,22.9z"/>
			<path class="st0" d="M157.6,30.4c-3.4,0-6.8,0-10.2,0c-1.3,0-1.3,0-1.3-1.3c0-2.3-0.3-2.1,2.2-2.1c5.3,0,10.6,0,16,0
				c1.9,0,3.8-0.2,5.6-1.1c1.3-0.7,2.1-1.7,2-3.2c0-1.4,0-2.7-0.1-4.1c-0.1-1.6,0.6-2.8,1.8-3.7c1.9-1.4,4.1-2.3,6.4-2.6
				c2.4-0.4,4.9-0.7,7.4-0.7c5.8-0.1,11.6,0,17.4,0c1.4,0,1.4,0,1.4,1.4c0,2.5,0.3,2.1-2.1,2.1c-5.6,0-11.1,0-16.7,0
				c-1.6,0-3.2,0.2-4.7,0.9c-1.4,0.7-2.4,1.6-2.2,3.4c0.1,1.3,0,2.6,0,4c0,1.5-0.5,2.7-1.7,3.7c-1.7,1.4-3.7,2.1-5.8,2.7
				c-3.3,0.8-6.6,1-10,0.9C161.2,30.4,159.4,30.4,157.6,30.4z"/>
			<path class="st0" d="M277.8,30.4c-1,0-2.1,0-3.1,0c-0.9,0.1-1.2-0.2-1.2-1.1c0.1-2.1,0-4.2,0-6.4c0-0.8-0.2-1.3-1.1-1.6
				c-6-2.1-11.9-4.3-17.9-6.5c-0.6-0.2-1.3-0.2-1.4-1.2c0-1.8,0-1.8,1.8-1.9c3-0.2,5.8,0.5,8.6,1.6c4.6,1.8,9.2,3.4,13.8,5.1
				c0.4,0.2,1,0.2,1.5,0c5.5-2,11-4,16.4-6c1.1-0.4,2.1-0.7,3.3-0.6c1.2,0.1,2.4,0,3.6,0c0.6,0,0.9,0.3,0.9,0.9
				c0.1,1.5,0,1.6-1.4,2.2c-6.1,2.3-12.3,4.5-18.4,6.8c-0.9,0.3-1.3,0.8-1.3,1.8c0.1,1.9,0,3.8,0,5.8c0,1.2,0,1.2-1.2,1.2
				C279.9,30.4,278.9,30.4,277.8,30.4z"/>
			<path class="st0" d="M241.7,30.3c-4.7,0-9.4,0.1-14.2,0c-3.4-0.1-6.7-0.7-9.7-2.2c-0.8-0.4-1.6-0.9-2.3-1.5
				c-0.9-0.8-1.4-1.8-1.4-3.1c0-3.7,0-7.4,0-11c0-0.9,0.3-1.1,1.1-1.1c2,0,4.1,0,6.1,0c1.3,0,1.4,0,1.4,1.3c0,3.4,0,6.7,0,10.1
				c0,1.4,0.6,2.3,1.8,3c1.8,1,3.8,1.1,5.8,1.1c8.7,0,17.4,0,26.1,0c0.3,0,0.6,0,1,0c0.2,0,0.5,0.1,0.6,0.1c0.1,1,0.3,1.9,0.2,2.9
				c0,0.2-0.8,0.5-1.2,0.5c-3.4,0-6.8,0-10.2,0C245.1,30.4,243.4,30.4,241.7,30.3C241.7,30.4,241.7,30.3,241.7,30.3z"/>
		</g>
	</g>
</g>
</svg>
